<svg fill="none" height="512" viewBox="0 0 24 24" width="512" xmlns="http://www.w3.org/2000/svg"><g fill="rgb(0,0,0)"><path d="m18 3c-1.6569 0-3 1.34315-3 3s1.3431 3 3 3 3-1.34315 3-3-1.3431-3-3-3z"/><path d="m13.4573 13.2061 1.2187-1.7726c.1865-.2714.4947-.4335.824-.4335s.6375.1621.824.4335l5.5 8c.2104.306.2339.7034.061 1.032-.1729.3287-.5136.5345-.885.5345h-18c-.35242 0-.67881-.1855-.85915-.4883s-.18799-.6781-.02014-.988l6.5-11.99998c.17479-.3227.5123-.52372.87929-.52372s.7045.20102.8793.52372z"/></g></svg>